<svg width="103" height="73" viewBox="0 0 103 73" fill="none" xmlns="http://www.w3.org/2000/svg">
<path d="M0 8.51667C0 3.81303 4.03503 0 9.0125 0H78.5375C83.515 0 87.55 3.81303 87.55 8.51667V49.8833C87.55 54.587 83.515 58.4 78.5375 58.4H9.0125C4.03503 58.4 0 54.587 0 49.8833V8.51667ZM15.45 6.08333V10.95C15.45 12.9658 13.7207 14.6 11.5875 14.6H6.4375V21.9H11.5875C17.9871 21.9 23.175 16.9975 23.175 10.95V6.08333H15.45ZM43.775 41.3667C50.1744 41.3667 55.3625 36.464 55.3625 30.4167C55.3625 24.3693 50.1744 19.4667 43.775 19.4667C37.3754 19.4667 32.1875 24.3693 32.1875 30.4167C32.1875 36.464 37.3754 41.3667 43.775 41.3667ZM6.4375 43.8H11.5875C13.7207 43.8 15.45 45.4342 15.45 47.45V52.3167H23.175V47.45C23.175 41.4027 17.9871 36.5 11.5875 36.5H6.4375V43.8ZM72.1 47.45C72.1 45.4342 73.8294 43.8 75.9625 43.8H81.1125V36.5H75.9625C69.5631 36.5 64.375 41.4027 64.375 47.45V52.3167H72.1V47.45ZM72.1 10.95V6.08333H64.375V10.95C64.375 16.9975 69.5631 21.9 75.9625 21.9H81.1125V14.6H75.9625C73.8294 14.6 72.1 12.9658 72.1 10.95Z" fill="#115166"/>
<path d="M12.3669 65.7C15.0383 70.0639 20.0313 73 25.75 73H78.5375C92.048 73 103 62.6505 103 49.8833V24.3333C103 18.9293 99.893 14.211 95.275 11.6866V49.8833C95.275 58.6185 87.7812 65.7 78.5375 65.7H12.3669Z" fill="#115166"/>
</svg>
