<svg width="132" height="120" viewBox="0 0 132 120" fill="none" xmlns="http://www.w3.org/2000/svg">
<path d="M66 12V39C66 43.9706 70.4325 48 75.9 48H105.6V99C105.6 103.97 101.167 108 95.7 108H36.3C30.8324 108 26.4 103.97 26.4 99V78H36.3C40.0498 78 43.4778 76.074 45.1548 73.0248L45.3811 72.6132L53.5615 90.4614C55.0511 93.7116 58.4886 95.8734 62.3592 95.9946C66.2297 96.1158 69.8227 94.1742 71.5546 91.0248L78.7188 78H82.5C87.9674 78 92.4 73.9704 92.4 69C92.4 64.0296 87.9674 60 82.5 60H72.6C68.8499 60 65.4222 61.926 63.7452 64.9752L63.5189 65.3868L55.3385 47.5385C53.8489 44.2885 50.4114 42.1265 46.5407 42.0053C42.6701 41.8841 39.0772 43.826 37.3452 46.9751L30.1815 60H26.4V21C26.4 16.0294 30.8324 12 36.3 12H66Z" fill="#115166"/>
<path d="M72.6 13.5V39C72.6 40.6568 74.0777 42 75.9 42H103.95L72.6 13.5Z" fill="#115166"/>
<path d="M49.2462 49.8462C48.7496 48.7629 47.6038 48.0422 46.3136 48.0018C45.0233 47.9614 43.8257 48.6087 43.2484 49.6584L34.2605 66H23.1C21.2775 66 19.8 67.3434 19.8 69C19.8 70.6566 21.2775 72 23.1 72H36.3C37.55 72 38.6926 71.358 39.2516 70.3416L45.927 58.2045L59.6538 88.1538C60.1503 89.2374 61.2962 89.958 62.5864 89.9982C63.8766 90.0384 65.0743 89.3916 65.6516 88.3416L74.6394 72H82.5C84.3222 72 85.8 70.6566 85.8 69C85.8 67.3434 84.3222 66 82.5 66H72.6C71.3499 66 70.2075 66.642 69.6485 67.6584L62.973 79.7958L49.2462 49.8462Z" fill="#115166"/>
</svg>
