<svg width="91" height="96" viewBox="0 0 91 96" fill="none" xmlns="http://www.w3.org/2000/svg">
<path d="M39.8125 28C33.5303 28 28.4375 33.3726 28.4375 40C28.4375 46.6276 33.5303 52 39.8125 52C46.0949 52 51.1875 46.6276 51.1875 40C51.1875 33.3726 46.0949 28 39.8125 28ZM34.125 40C34.125 36.6863 36.6714 34 39.8125 34C42.9535 34 45.5 36.6863 45.5 40C45.5 43.3136 42.9535 46 39.8125 46C36.6714 46 34.125 43.3136 34.125 40ZM7.58333 25C7.58333 20.0294 11.4029 16 16.1146 16H63.5104C68.2219 16 72.0417 20.0294 72.0417 25V44H66.3542V34H63.5104C58.7989 34 54.9792 29.9706 54.9792 25V22H24.6458V25C24.6458 29.9706 20.8263 34 16.1146 34H13.2708V46H16.1146C20.8263 46 24.6458 50.0296 24.6458 55V58H53.0833V64H16.1146C11.4029 64 7.58333 59.9704 7.58333 55V25ZM16.1146 22C14.544 22 13.2708 23.3432 13.2708 25V28H16.1146C17.6851 28 18.9583 26.6568 18.9583 25V22H16.1146ZM66.3542 28V25C66.3542 23.3432 65.0809 22 63.5104 22H60.6667V25C60.6667 26.6568 61.9399 28 63.5104 28H66.3542ZM13.2708 55C13.2708 56.6568 14.544 58 16.1146 58H18.9583V55C18.9583 53.3432 17.6851 52 16.1146 52H13.2708V55ZM16.6885 70H53.0833V76H26.5417C22.3314 76 18.6553 73.5868 16.6885 70ZM83.4167 44V36.0001C83.4167 31.5584 81.1291 27.6803 77.7292 25.6055V44H83.4167ZM62.5625 48C59.4215 48 56.875 50.6864 56.875 54V86C56.875 89.3136 59.4215 92 62.5625 92H81.5201C84.6611 92 87.2076 89.3136 87.2076 86V54C87.2076 50.6864 84.6611 48 81.5201 48H62.5625ZM64.4583 66H68.2492C69.2961 66 70.1451 66.8956 70.1451 68C70.1451 69.1044 69.2961 70 68.2492 70H64.4583C63.4114 70 62.5625 69.1044 62.5625 68C62.5625 66.8956 63.4114 66 64.4583 66ZM75.8333 66H79.625C80.6719 66 81.5208 66.8956 81.5208 68C81.5208 69.1044 80.6719 70 79.625 70H75.8333C74.7864 70 73.9375 69.1044 73.9375 68C73.9375 66.8956 74.7864 66 75.8333 66ZM64.4583 74H68.2492C69.2961 74 70.1451 74.8956 70.1451 76C70.1451 77.1044 69.2961 78 68.2492 78H64.4583C63.4114 78 62.5625 77.1044 62.5625 76C62.5625 74.8956 63.4114 74 64.4583 74ZM75.8333 74H79.625C80.6719 74 81.5208 74.8956 81.5208 76C81.5208 77.1044 80.6719 78 79.625 78H75.8333C74.7864 78 73.9375 77.1044 73.9375 76C73.9375 74.8956 74.7864 74 75.8333 74ZM64.4583 82H68.2492C69.2961 82 70.1451 82.8956 70.1451 84C70.1451 85.1044 69.2961 86 68.2492 86H64.4583C63.4114 86 62.5625 85.1044 62.5625 84C62.5625 82.8956 63.4114 82 64.4583 82ZM75.8333 82H79.625C80.6719 82 81.5208 82.8956 81.5208 84C81.5208 85.1044 80.6719 86 79.625 86H75.8333C74.7864 86 73.9375 85.1044 73.9375 84C73.9375 82.8956 74.7864 82 75.8333 82ZM62.5621 55.9996C62.5621 54.8952 63.4111 53.9996 64.4579 53.9996H79.6246C80.6715 53.9996 81.5204 54.8952 81.5204 55.9996V59.9996C81.5204 61.104 80.6715 61.9996 79.6246 61.9996H64.4579C63.4111 61.9996 62.5621 61.104 62.5621 59.9996V55.9996Z" fill="#115166"/>
</svg>
