<svg width="97" height="84" viewBox="0 0 97 84" fill="none" xmlns="http://www.w3.org/2000/svg">
<path d="M23.2359 10.5C28.2562 10.5 32.3259 14.0243 32.3259 18.3718V65.6282C32.3259 69.9758 28.2562 73.5 23.2359 73.5C18.2156 73.5 14.1458 69.9758 14.1458 65.6282V18.3718C14.1458 14.0243 18.2156 10.5 23.2359 10.5ZM49.5068 24.5C54.5269 24.5 58.5969 28.0243 58.5969 32.3718V65.6282C58.5969 69.9758 54.5269 73.5 49.5068 73.5C44.4862 73.5 40.4167 69.9758 40.4167 65.6282V32.3718C40.4167 28.0243 44.4862 24.5 49.5068 24.5ZM75.7776 38.5C80.7978 38.5 84.8677 42.0241 84.8677 46.3718V65.6282C84.8677 69.9758 80.7978 73.5 75.7776 73.5C70.757 73.5 66.6875 69.9758 66.6875 65.6282V46.3718C66.6875 42.0241 70.757 38.5 75.7776 38.5ZM23.2359 15.75C21.5638 15.75 20.2083 16.9238 20.2083 18.3718V65.6282C20.2083 67.0761 21.5638 68.25 23.2359 68.25C24.9079 68.25 26.2634 67.0761 26.2634 65.6282V18.3718C26.2634 16.9238 24.9079 15.75 23.2359 15.75ZM49.5068 29.75C47.8347 29.75 46.4792 30.9238 46.4792 32.3718V65.6282C46.4792 67.0761 47.8347 68.25 49.5068 68.25C51.1788 68.25 52.5344 67.0761 52.5344 65.6282V32.3718C52.5344 30.9238 51.1788 29.75 49.5068 29.75ZM75.7776 43.75C74.1056 43.75 72.75 44.9239 72.75 46.3718V65.6282C72.75 67.0761 74.1056 68.25 75.7776 68.25C77.4496 68.25 78.8052 67.0761 78.8052 65.6282V46.3718C78.8052 44.9239 77.4496 43.75 75.7776 43.75Z" fill="#115166"/>
</svg>
