<svg width="97" height="90" viewBox="0 0 97 90" fill="none" xmlns="http://www.w3.org/2000/svg">
<path d="M28.2917 45.9375C28.2917 44.3843 29.6488 43.125 31.3229 43.125C32.997 43.125 34.3542 44.3843 34.3542 45.9375C34.3542 47.4907 32.997 48.75 31.3229 48.75C29.6488 48.75 28.2917 47.4907 28.2917 45.9375ZM31.3229 54.375C29.6488 54.375 28.2917 55.6343 28.2917 57.1875C28.2917 58.7407 29.6488 60 31.3229 60C32.997 60 34.3542 58.7407 34.3542 57.1875C34.3542 55.6343 32.997 54.375 31.3229 54.375ZM28.2917 68.4375C28.2917 66.8843 29.6488 65.625 31.3229 65.625C32.997 65.625 34.3542 66.8843 34.3542 68.4375C34.3542 69.9907 32.997 71.25 31.3229 71.25C29.6488 71.25 28.2917 69.9907 28.2917 68.4375ZM43.4479 43.125C41.7739 43.125 40.4167 44.3843 40.4167 45.9375C40.4167 47.4907 41.7739 48.75 43.4479 48.75H65.6771C67.3511 48.75 68.7083 47.4907 68.7083 45.9375C68.7083 44.3843 67.3511 43.125 65.6771 43.125H43.4479ZM40.4167 57.1875C40.4167 55.6343 41.7739 54.375 43.4479 54.375H65.6771C67.3511 54.375 68.7083 55.6343 68.7083 57.1875C68.7083 58.7407 67.3511 60 65.6771 60H43.4479C41.7739 60 40.4167 58.7407 40.4167 57.1875ZM43.4479 65.625C41.7739 65.625 40.4167 66.8843 40.4167 68.4375C40.4167 69.9907 41.7739 71.25 43.4479 71.25H65.6771C67.3511 71.25 68.7083 69.9907 68.7083 68.4375C68.7083 66.8843 67.3511 65.625 65.6771 65.625H43.4479ZM78.4649 31.5525L54.906 9.6975C54.8454 9.64144 54.7771 9.5928 54.7092 9.54446C54.6587 9.50876 54.609 9.47325 54.5625 9.435C54.2755 9.195 53.9926 8.95875 53.6774 8.76C53.5751 8.69602 53.4636 8.64555 53.352 8.59526C53.2873 8.56597 53.2227 8.53676 53.16 8.505C53.0925 8.46971 53.0255 8.43364 52.958 8.39749C52.7389 8.27989 52.519 8.1618 52.287 8.07C51.4908 7.7625 50.634 7.60875 49.765 7.5525C49.6854 7.54777 49.6066 7.5378 49.5274 7.52779C49.4179 7.51391 49.3079 7.5 49.1952 7.5H24.25C19.788 7.5 16.1667 10.86 16.1667 15V75C16.1667 79.14 19.788 82.5 24.25 82.5H72.75C77.212 82.5 80.8333 79.14 80.8333 75V36.855C80.8333 34.8675 79.9805 32.9587 78.4649 31.5525ZM74.7708 75C74.7708 76.0312 73.8655 76.875 72.75 76.875H24.25C23.1345 76.875 22.2292 76.0312 22.2292 75V15C22.2292 13.9688 23.1345 13.125 24.25 13.125H48.5V30C48.5 34.14 52.1213 37.5 56.5833 37.5H74.7708V75ZM54.5625 17.3287L70.2361 31.875H56.5833C55.4678 31.875 54.5625 31.0312 54.5625 30V17.3287Z" fill="#115166"/>
</svg>
