<svg width="105" height="116" viewBox="0 0 105 116" fill="none" xmlns="http://www.w3.org/2000/svg">
<path d="M79.8437 14.5C86.4885 14.5 91.875 20.4509 91.875 27.7917V87.2417C89.2062 87.84 86.8901 89.5124 85.3125 91.8324C83.3171 88.898 80.1404 87 76.5625 87C72.9846 87 69.8079 88.898 67.8125 91.8324C65.8171 88.898 62.6404 87 59.0625 87C53.0219 87 48.125 92.41 48.125 99.0833C48.125 99.9108 48.2002 100.719 48.3437 101.5H25.1562C18.5116 101.5 13.125 95.5492 13.125 88.2083V27.7917C13.125 20.4509 18.5116 14.5 25.1562 14.5H79.8437ZM65.625 59.2083C65.625 57.2064 64.1559 55.5833 62.3437 55.5833H29.5312L29.086 55.6162C27.4844 55.8564 26.25 57.3731 26.25 59.2083C26.25 61.2103 27.7191 62.8333 29.5312 62.8333H62.3437L62.7891 62.8005C64.3904 62.5603 65.625 61.0436 65.625 59.2083ZM75.4687 74.9167H29.5312L29.086 74.9495C27.4844 75.1898 26.25 76.7065 26.25 78.5417C26.25 80.5436 27.7191 82.1667 29.5312 82.1667H75.4687L75.9141 82.1338C77.5154 81.8936 78.75 80.3769 78.75 78.5417C78.75 76.5397 77.2809 74.9167 75.4687 74.9167ZM78.75 39.875C78.75 37.873 77.2809 36.25 75.4687 36.25H29.5312L29.086 36.2831C27.4844 36.5231 26.25 38.0398 26.25 39.875C26.25 41.877 27.7191 43.5 29.5312 43.5H75.4687L75.9141 43.4669C77.5154 43.2269 78.75 41.7102 78.75 39.875ZM59.0625 106.333C62.6867 106.333 65.625 103.087 65.625 99.0833C65.625 95.0794 62.6867 91.8333 59.0625 91.8333C55.4382 91.8333 52.5 95.0794 52.5 99.0833C52.5 103.087 55.4382 106.333 59.0625 106.333ZM76.5625 106.333C80.1867 106.333 83.125 103.087 83.125 99.0833C83.125 95.0794 80.1867 91.8333 76.5625 91.8333C72.9382 91.8333 70 95.0794 70 99.0833C70 103.087 72.9382 106.333 76.5625 106.333ZM100.625 99.0833C100.625 103.087 97.6867 106.333 94.0625 106.333C90.4382 106.333 87.5 103.087 87.5 99.0833C87.5 95.0794 90.4382 91.8333 94.0625 91.8333C97.6867 91.8333 100.625 95.0794 100.625 99.0833Z" fill="#115166"/>
</svg>
