<svg width="33" height="37" viewBox="0 0 33 37" fill="none" xmlns="http://www.w3.org/2000/svg">
<path d="M16.5 1L16.9916 0.129176C16.6865 -0.0430585 16.3135 -0.0430585 16.0084 0.129176L16.5 1ZM1 9.75L0.508406 8.87917C0.194277 9.05651 0 9.38927 0 9.75C0 10.1107 0.194277 10.4435 0.508406 10.6208L1 9.75ZM16.5 18.5L16.0084 19.3708C16.3135 19.5431 16.6865 19.5431 16.9916 19.3708L16.5 18.5ZM32 9.75L32.4916 10.6208C32.8057 10.4435 33 10.1107 33 9.75C33 9.38927 32.8057 9.05651 32.4916 8.87917L32 9.75ZM1.49159 26.3792C1.01065 26.1077 0.400676 26.2775 0.129176 26.7584C-0.142324 27.2393 0.0274626 27.8493 0.508406 28.1208L1.49159 26.3792ZM16.5 36L16.0084 36.8708C16.3135 37.0431 16.6865 37.0431 16.9916 36.8708L16.5 36ZM32.4916 28.1208C32.9725 27.8493 33.1423 27.2393 32.8708 26.7584C32.5993 26.2775 31.9893 26.1077 31.5084 26.3792L32.4916 28.1208ZM1.49159 17.6292C1.01065 17.3577 0.400676 17.5275 0.129176 18.0084C-0.142324 18.4893 0.0274627 19.0993 0.508406 19.3708L1.49159 17.6292ZM16.5 27.25L16.0084 28.1208C16.3135 28.2931 16.6865 28.2931 16.9916 28.1208L16.5 27.25ZM32.4916 19.3708C32.9725 19.0993 33.1423 18.4893 32.8708 18.0084C32.5993 17.5275 31.9893 17.3577 31.5084 17.6292L32.4916 19.3708ZM16.0084 0.129176L0.508406 8.87917L1.49159 10.6208L16.9916 1.87082L16.0084 0.129176ZM0.508406 10.6208L16.0084 19.3708L16.9916 17.6292L1.49159 8.87917L0.508406 10.6208ZM16.9916 19.3708L32.4916 10.6208L31.5084 8.87917L16.0084 17.6292L16.9916 19.3708ZM32.4916 8.87917L16.9916 0.129176L16.0084 1.87082L31.5084 10.6208L32.4916 8.87917ZM0.508406 28.1208L16.0084 36.8708L16.9916 35.1292L1.49159 26.3792L0.508406 28.1208ZM16.9916 36.8708L32.4916 28.1208L31.5084 26.3792L16.0084 35.1292L16.9916 36.8708ZM0.508406 19.3708L16.0084 28.1208L16.9916 26.3792L1.49159 17.6292L0.508406 19.3708ZM16.9916 28.1208L32.4916 19.3708L31.5084 17.6292L16.0084 26.3792L16.9916 28.1208Z" fill="#9DF0FB"/>
</svg>
